HIERARCHY
ROOT joint_Root
{
  OFFSET 0 0 0
  CHANNELS 6 Xposition Yposition Zposition Zrotation Xrotation Yrotation
  JOINT Hips
  {
    OFFSET 0.847027 93.984 -452.225
    CHANNELS 6 Xposition Yposition Zposition Zrotation Xrotation Yrotation
    JOINT Spine
    {
      OFFSET 15.7357 0 0
      CHANNELS 6 Xposition Yposition Zposition Zrotation Xrotation Yrotation
      JOINT Chest
      {
        OFFSET 8.98455 -0.406207 0
        CHANNELS 6 Xposition Yposition Zposition Zrotation Xrotation Yrotation
        JOINT Neck
        {
          OFFSET 16.3773 0 0
          CHANNELS 6 Xposition Yposition Zposition Zrotation Xrotation Yrotation
          JOINT Head
          {
            OFFSET 6.45672 0 0
            CHANNELS 6 Xposition Yposition Zposition Zrotation Xrotation Yrotation
            End Site
            {
              OFFSET 0 0 0
            }
          }
        }
        JOINT Shoulder_L
        {
          OFFSET 12.9942 -0.242716 4.98039
          CHANNELS 6 Xposition Yposition Zposition Zrotation Xrotation Yrotation
          JOINT UpperArm_L
          {
            OFFSET 5.34809 0 0
            CHANNELS 6 Xposition Yposition Zposition Zrotation Xrotation Yrotation
            JOINT LowerArm_L
            {
              OFFSET 24.3286 1.87007e-05 0
              CHANNELS 6 Xposition Yposition Zposition Zrotation Xrotation Yrotation
              JOINT Hand_L
              {
                OFFSET 22.2916 0 0
                CHANNELS 6 Xposition Yposition Zposition Zrotation Xrotation Yrotation
                End Site
                {
                  OFFSET 0 0 0
                }
              }
            }
          }
        }
        JOINT Shoulder_R
        {
          OFFSET 12.9945 -0.242716 -4.98039
          CHANNELS 6 Xposition Yposition Zposition Zrotation Xrotation Yrotation
          JOINT UpperArm_R
          {
            OFFSET -5.34813 0 0
            CHANNELS 6 Xposition Yposition Zposition Zrotation Xrotation Yrotation
            JOINT LowerArm_R
            {
              OFFSET -24.3289 0.000322201 0
              CHANNELS 6 Xposition Yposition Zposition Zrotation Xrotation Yrotation
              JOINT Hand_R
              {
                OFFSET -22.2915 -0.000108084 0
                CHANNELS 6 Xposition Yposition Zposition Zrotation Xrotation Yrotation
                End Site
                {
                  OFFSET 0 0 0
                }
              }
            }
          }
        }
      }
    }
    JOINT UpperLeg_L
    {
      OFFSET -2.19248 -6.46944 0
      CHANNELS 6 Xposition Yposition Zposition Zrotation Xrotation Yrotation
      JOINT LowerLeg_L
      {
        OFFSET 39.0811 0 -1.23785e-05
        CHANNELS 6 Xposition Yposition Zposition Zrotation Xrotation Yrotation
        JOINT Foot_L
        {
          OFFSET 40.9854 0 -1.26872e-05
          CHANNELS 6 Xposition Yposition Zposition Zrotation Xrotation Yrotation
          JOINT Toes_L
          {
            OFFSET 11.7543 0 0
            CHANNELS 6 Xposition Yposition Zposition Zrotation Xrotation Yrotation
            End Site
            {
              OFFSET 0 0 0
            }
          }
        }
      }
    }
    JOINT UpperLeg_R
    {
      OFFSET -2.19251 6.46944 0
      CHANNELS 6 Xposition Yposition Zposition Zrotation Xrotation Yrotation
      JOINT LowerLeg_R
      {
        OFFSET -39.0811 -0.00228153 -0.0401928
        CHANNELS 6 Xposition Yposition Zposition Zrotation Xrotation Yrotation
        JOINT Foot_R
        {
          OFFSET -40.9854 0 0
          CHANNELS 6 Xposition Yposition Zposition Zrotation Xrotation Yrotation
          JOINT Toes_R
          {
            OFFSET -11.7543 0 0
            CHANNELS 6 Xposition Yposition Zposition Zrotation Xrotation Yrotation
            End Site
            {
              OFFSET 0 0 0
            }
          }
        }
      }
    }
  }
}
MOTION
Frames:	9
Frame Time:	0.0333333
0 0 0 0 0 -0 -7.29094 91.5887 -5.41434 81.6436 0.334518 0.925182 15.7357 5.1072e-06 -5.51765e-07 72.0684 84.9635 -77.2045 8.98455 -0.406207 -4.3199e-07 1.7139 -2.82901 -10.2215 16.3773 -1.3905e-06 -6.99897e-07 2.38859 -1.26149 2.37916 6.45672 -1.25837e-06 -1.02172e-07 -9.20075 0.273762 4.72082 12.9942 -0.242716 4.98039 -91.2452 3.77752 -86.7417 5.34809 -7.22636e-06 -6.2814e-07 -65.6344 -12.0437 12.7115 24.3286 1.87007e-05 4.90208e-06 -10.5092 -19.0657 -29.5914 22.2916 -9.88446e-07 4.63217e-06 33.1286 5.65337 -15.3343 12.9945 -0.242716 -4.98039 88.4042 6.93574 -92.0123 -5.34813 -1.25947e-06 -3.79883e-06 -38.717 -36.8148 -14.886 -24.3289 0.000322201 -8.65921e-06 -13.8111 -20.3733 -35.2176 -22.2915 -0.000108084 -4.47941e-06 18.6945 4.68537 13.4184 -2.19248 -6.46944 -1.22534e-07 -158.99 -5.71141 -8.76196 39.0811 -6.73843e-06 -1.23785e-05 0.034639 -0.0575599 23.3011 40.9854 -6.48686e-06 -1.26872e-05 -10.9536 -4.11531 -61.5064 11.7543 -2.30145e-07 3.05095e-06 -0.374781 -0.469138 -17.1144 -2.19251 6.46944 -1.45247e-06 178.961 17.3517 168.305 -39.0811 -0.00228153 -0.0401928 0.0864089 -0.132264 26.9454 -40.9854 7.72618e-06 5.99936e-06 -3.91357 6.20705 -53.1814 -11.7543 -5.6619e-06 -5.58687e-06 -0.364543 -1.22145 -21.8232 
0 0 0 0 0 -0 -7.19873 91.5256 -4.89868 83.2878 -0.0444447 0.942974 15.7357 5.1072e-06 -5.51765e-07 64.3094 85.2679 -69.8971 8.98455 -0.406207 -4.3199e-07 0.606544 -3.7533 -11.1492 16.3773 -1.3905e-06 -6.99897e-07 2.52665 -1.63347 2.86638 6.45672 -1.25837e-06 -1.02172e-07 -8.06973 0.794841 5.25396 12.9942 -0.242716 4.98039 -91.3059 3.9925 -86.8715 5.34809 -7.22636e-06 -6.2814e-07 -66.7059 -11.9238 13.7052 24.3286 1.87007e-05 4.90208e-06 -12.271 -22.5626 -29.551 22.2916 -9.88446e-07 4.63217e-06 33.884 5.65988 -16.0459 12.9945 -0.242716 -4.98039 88.2148 7.07774 -90.804 -5.34813 -1.25947e-06 -3.79883e-06 -40.1781 -37.072 -16.6316 -24.3289 0.000322201 -8.65921e-06 -19.9507 -24.2881 -41.4244 -22.2915 -0.000108084 -4.47941e-06 21.5999 4.67687 13.5725 -2.19248 -6.46944 -1.22534e-07 -160.375 -7.09073 -6.53408 39.0811 -6.73843e-06 -1.23785e-05 -0.0173261 0.0747253 20.4116 40.9854 -6.48686e-06 -1.26872e-05 -12.6696 -3.03715 -61.4135 11.7543 -2.30145e-07 3.05095e-06 -0.0130422 0.00705914 -16.5765 -2.19251 6.46944 -1.45247e-06 176.898 17.5385 170.07 -39.0811 -0.00228153 -0.0401928 0.0572601 -0.0833002 24.9974 -40.9854 7.72618e-06 5.99936e-06 -4.08045 7.41351 -54.8033 -11.7543 -5.6619e-06 -5.58687e-06 -1.09949 -1.91772 -22.4257 
0 0 0 0 0 -0 -6.8853 91.3075 -4.38167 85.2239 -2.48417 1.69776 15.7357 5.1072e-06 -5.51765e-07 62.6093 85.5702 -68.6867 8.98455 -0.406207 -4.3199e-07 -0.063463 -3.66088 -12.1514 16.3773 -1.3905e-06 -6.99897e-07 2.88806 -1.8429 3.25309 6.45672 -1.25837e-06 -1.02172e-07 -6.15273 0.717706 5.9554 12.9942 -0.242716 4.98039 -91.4683 4.31419 -86.1855 5.34809 -7.22636e-06 -6.2814e-07 -66.9253 -7.99492 12.9071 24.3286 1.87007e-05 4.90208e-06 -11.3349 -24.1266 -26.1187 22.2916 -9.88446e-07 4.63217e-06 30.886 5.65188 -15.0819 12.9945 -0.242716 -4.98039 88.4018 6.11986 -90.334 -5.34813 -1.25947e-06 -3.79883e-06 -38.8638 -41.7373 -24.493 -24.3289 0.000322201 -8.65921e-06 -21.6065 -22.0869 -46.4891 -22.2915 -0.000108084 -4.47941e-06 24.1231 4.78654 11.5807 -2.19248 -6.46944 -1.22534e-07 -162.266 -8.88946 -4.60387 39.0811 -6.73843e-06 -1.23785e-05 -0.0653762 0.210928 20.715 40.9854 -6.48686e-06 -1.26872e-05 -12.5811 -3.29705 -62.2882 11.7543 -2.30145e-07 3.05095e-06 -0.0180553 0.00892685 -16.5763 -2.19251 6.46944 -1.45247e-06 174.031 18.6884 172.776 -39.0811 -0.00228153 -0.0401928 0.0423596 -0.0561824 22.7444 -40.9854 7.72618e-06 5.99936e-06 -3.95483 11.2855 -58.5485 -11.7543 -5.6619e-06 -5.58687e-06 -0.204312 -0.678633 -19.2516 
0 0 0 0 0 -0 -6.80518 91.1556 -3.9804 85.7547 -5.59319 2.70819 15.7357 5.1072e-06 -5.51765e-07 67.2648 85.6851 -73.2219 8.98455 -0.406207 -4.3199e-07 0.0694944 -2.93535 -11.9058 16.3773 -1.3905e-06 -6.99897e-07 3.12204 -1.33359 3.39043 6.45672 -1.25837e-06 -1.02172e-07 -5.77045 1.0417 5.63854 12.9942 -0.242716 4.98039 -91.7802 4.96355 -85.2421 5.34809 -7.22636e-06 -6.2814e-07 -65.5254 -7.11284 11.9895 24.3286 1.87007e-05 4.90208e-06 -6.59071 -16.2924 -22.3813 22.2916 -9.88446e-07 4.63217e-06 26.2396 5.62047 -12.5798 12.9945 -0.242716 -4.98039 88.8802 4.29342 -90.3657 -5.34813 -1.25947e-06 -3.79883e-06 -33.8238 -48.7888 -33.9637 -24.3289 0.000322201 -8.65921e-06 -23.5037 -18.4924 -53.8555 -22.2915 -0.000108084 -4.47941e-06 25.0233 4.93641 8.64758 -2.19248 -6.46944 -1.22534e-07 -162.386 -10.8703 -2.27859 39.0811 -6.73843e-06 -1.23785e-05 -0.0937763 0.28595 21.0428 40.9854 -6.48686e-06 -1.26872e-05 -12.8043 -3.84159 -63.1946 11.7543 -2.30145e-07 3.05095e-06 -0.0150433 0.00653555 -16.5765 -2.19251 6.46944 -1.45247e-06 172.938 17.4371 175.295 -39.0811 -0.00228153 -0.0401928 0.00781794 0.0264399 20.2222 -40.9854 7.72618e-06 5.99936e-06 -5.32214 13.1046 -60.2106 -11.7543 -5.6619e-06 -5.58687e-06 0.164707 -0.189152 -18.4184 
0 0 0 0 0 -0 -6.81431 91.2204 -4.26668 85.8654 -7.69296 1.49025 15.7357 5.1072e-06 -5.51765e-07 68.5342 85.9453 -74.0255 8.98455 -0.406207 -4.3199e-07 -0.31862 -2.58041 -10.9843 16.3773 -1.3905e-06 -6.99897e-07 2.41853 -0.661488 3.67536 6.45672 -1.25837e-06 -1.02172e-07 -6.70244 2.06157 4.60962 12.9942 -0.242716 4.98039 -92.0326 5.45441 -84.5255 5.34809 -7.22636e-06 -6.2814e-07 -64.3225 -7.31711 11.1487 24.3286 1.87007e-05 4.90208e-06 -4.43069 -11.2224 -21.7098 22.2916 -9.88446e-07 4.63217e-06 24.2586 5.59277 -10.921 12.9945 -0.242716 -4.98039 89.8086 0.707679 -89.8212 -5.34813 -1.25947e-06 -3.79883e-06 -30.8326 -59.8056 -46.0754 -24.3289 0.000322201 -8.65921e-06 -22.3201 -13.0428 -61.2124 -22.2915 -0.000108084 -4.47941e-06 26.0689 5.05159 6.21072 -2.19248 -6.46944 -1.22534e-07 -162.732 -11.9085 -2.63931 39.0811 -6.73843e-06 -1.23785e-05 -0.0601449 0.199092 20.4698 40.9854 -6.48686e-06 -1.26872e-05 -13.0379 -5.16053 -63.1423 11.7543 -2.30145e-07 3.05095e-06 0.00202944 -0.0031178 -16.6334 -2.19251 6.46944 -1.45247e-06 173.423 13.4562 173.851 -39.0811 -0.00228153 -0.0401928 -0.0403063 0.164484 19.1651 -40.9854 7.72618e-06 5.99936e-06 -7.46672 11.1315 -59.1286 -11.7543 -5.6619e-06 -5.58687e-06 0.176465 -0.203122 -18.5526 
0 0 0 0 0 -0 -6.8426 91.4253 -4.9166 85.9827 -8.24438 -0.697132 15.7357 5.1072e-06 -5.51765e-07 66.8791 86.2055 -71.9526 8.98455 -0.406207 -4.3199e-07 -0.881216 -2.59735 -10.1632 16.3773 -1.3905e-06 -6.99897e-07 1.46094 -0.989682 5.40491 6.45672 -1.25837e-06 -1.02172e-07 -7.44615 3.2 3.25721 12.9942 -0.242716 4.98039 -91.6506 4.54159 -85.0048 5.34809 -7.22636e-06 -6.2814e-07 -64.68 -8.64246 10.766 24.3286 1.87007e-05 4.90208e-06 -5.18929 -12.4473 -22.8452 22.2916 -9.88446e-07 4.63217e-06 25.582 5.59645 -11.1114 12.9945 -0.242716 -4.98039 91.4576 -4.66758 -87.6699 -5.34813 -1.25947e-06 -3.79883e-06 -40.6489 -72.4548 -68.2875 -24.3289 0.000322201 -8.65921e-06 -19.2257 -8.72063 -66.5058 -22.2915 -0.000108084 -4.47941e-06 28.3757 5.16113 3.69324 -2.19248 -6.46944 -1.22534e-07 -163.646 -12.3339 -5.47806 39.0811 -6.73843e-06 -1.23785e-05 0.00708502 0.0122584 20.8324 40.9854 -6.48686e-06 -1.26872e-05 -11.3778 -6.24995 -62.2105 11.7543 -2.30145e-07 3.05095e-06 0.0250532 -0.0391219 -17.2755 -2.19251 6.46944 -1.45247e-06 174.165 11.3403 171.482 -39.0811 -0.00228153 -0.0401928 -0.00623496 0.0628922 18.1298 -40.9854 7.72618e-06 5.99936e-06 -7.07252 9.21887 -58.4283 -11.7543 -5.6619e-06 -5.58687e-06 0.198433 -0.22944 -18.8047 
0 0 0 0 0 -0 -7.12892 91.491 -5.54367 85.8554 -7.87218 -1.56348 15.7357 5.1072e-06 -5.51765e-07 66.2125 85.862 -70.861 8.98455 -0.406207 -4.3199e-07 -0.29756 -3.01081 -9.30067 16.3773 -1.3905e-06 -6.99897e-07 1.48704 -2.12444 8.02567 6.45672 -1.25837e-06 -1.02172e-07 -8.7946 4.47314 2.48632 12.9942 -0.242716 4.98039 -90.914 2.68497 -86.1956 5.34809 -7.22636e-06 -6.2814e-07 -66.1395 -10.6139 11.2325 24.3286 1.87007e-05 4.90208e-06 -7.42977 -15.6396 -25.8095 22.2916 -9.88446e-07 4.63217e-06 28.2825 5.61814 -12.4598 12.9945 -0.242716 -4.98039 94.3638 -11.3251 -83.7749 -5.34813 -1.25947e-06 -3.79883e-06 -86.5402 -80.7327 -121.98 -24.3289 0.000322201 -8.65921e-06 -19.8186 -7.03854 -71.2204 -22.2915 -0.000108084 -4.47941e-06 31.2386 5.27535 0.772627 -2.19248 -6.46944 -1.22534e-07 -163.563 -13.5715 -8.39412 39.0811 -6.73843e-06 -1.23785e-05 0.0235845 -0.0282174 23.2464 40.9854 -6.48686e-06 -1.26872e-05 -10.2029 -5.04256 -60.6111 11.7543 -2.30145e-07 3.05095e-06 -0.0407481 -0.174316 -17.9629 -2.19251 6.46944 -1.45247e-06 175.077 9.64996 168.807 -39.0811 -0.00228153 -0.0401928 0.0343608 -0.0510467 20.5722 -40.9854 7.72618e-06 5.99936e-06 -4.61127 7.00141 -58.5622 -11.7543 -5.6619e-06 -5.58687e-06 0.202786 -0.234681 -18.8548 
0 0 0 0 0 -0 -7.72119 91.2923 -6.06817 85.1188 -7.71938 -1.31469 15.7357 5.1072e-06 -5.51765e-07 66.0528 85.014 -70.333 8.98455 -0.406207 -4.3199e-07 1.22331 -3.80177 -8.5144 16.3773 -1.3905e-06 -6.99897e-07 2.14376 -3.30815 11.5715 6.45672 -1.25837e-06 -1.02172e-07 -10.1926 5.91043 2.49106 12.9942 -0.242716 4.98039 -90.491 1.45412 -86.3394 5.34809 -7.22636e-06 -6.2814e-07 -66.6534 -12.2694 11.6994 24.3286 1.87007e-05 4.90208e-06 -9.75619 -17.6609 -29.541 22.2916 -9.88446e-07 4.63217e-06 31.0507 5.63952 -14.0508 12.9945 -0.242716 -4.98039 96.6202 -13.8024 -79.0534 -5.34813 -1.25947e-06 -3.79883e-06 -132.866 -78.8281 -175.039 -24.3289 0.000322201 -8.65921e-06 -15.7745 -4.91868 -73.1159 -22.2915 -0.000108084 -4.47941e-06 32.8271 5.26353 1.07424 -2.19248 -6.46944 -1.22534e-07 -162.309 -14.6878 -10.2968 39.0811 -6.73843e-06 -1.23785e-05 0.0577094 -0.0915232 26.6085 40.9854 -6.48686e-06 -1.26872e-05 -9.5375 -3.51729 -60.3748 11.7543 -2.30145e-07 3.05095e-06 0.0596296 -0.0948785 -18.2615 -2.19251 6.46944 -1.45247e-06 176.395 8.99207 167.14 -39.0811 -0.00228153 -0.0401928 0.0551646 -0.0884508 23.6087 -40.9854 7.72618e-06 5.99936e-06 -3.14168 6.24234 -58.9098 -11.7543 -5.6619e-06 -5.58687e-06 -0.230671 -0.553662 -18.3967 
0 0 0 0 0 -0 -8.08613 90.8101 -6.4364 84.0258 -7.72644 -1.30036 15.7357 5.1072e-06 -5.51765e-07 63.9353 84.4176 -67.9603 8.98455 -0.406207 -4.3199e-07 2.11779 -4.70409 -7.95802 16.3773 -1.3905e-06 -6.99897e-07 2.92034 -3.67527 13.7168 6.45672 -1.25837e-06 -1.02172e-07 -10.3599 6.14018 4.39842 12.9942 -0.242716 4.98039 -90.6581 1.84704 -85.3885 5.34809 -7.22636e-06 -6.2814e-07 -65.7274 -13.5101 12.5344 24.3286 1.87007e-05 4.90208e-06 -11.3322 -17.4724 -33.7208 22.2916 -9.88446e-07 4.63217e-06 34.6916 5.64859 -14.8642 12.9945 -0.242716 -4.98039 96.2025 -10.9638 -75.2542 -5.34813 -1.25947e-06 -3.79883e-06 -122.384 -79.6906 -166.988 -24.3289 0.000322201 -8.65921e-06 -14.0998 -3.63878 -75.829 -22.2915 -0.000108084 -4.47941e-06 35.3279 5.33535 -0.933022 -2.19248 -6.46944 -1.22534e-07 -160.884 -14.1908 -12.0848 39.0811 -6.73843e-06 -1.23785e-05 0.0886516 -0.133852 29.8742 40.9854 -6.48686e-06 -1.26872e-05 -9.8476 -3.69097 -61.5053 11.7543 -2.30145e-07 3.05095e-06 0.0469675 -0.0741983 -17.8969 -2.19251 6.46944 -1.45247e-06 177.622 10.556 166.541 -39.0811 -0.00228153 -0.0401928 0.0563794 -0.0827887 24.9405 -40.9854 7.72618e-06 5.99936e-06 -3.74073 7.91188 -60.3106 -11.7543 -5.6619e-06 -5.58687e-06 0.121604 -0.138469 -17.9292 
